<?xml version="1.0" encoding="UTF-8"?><svg id="Layer_1" xmlns="http://www.w3.org/2000/svg" width="4000" height="4000" viewBox="0 0 4000 4000"><path d="M3422.43,2326.03c7.35,139.22-64.81,281.93-171.38,409.84-122.06,146.51-276.83,245.48-459.76,298.69-20.89,6.08-49.84,3.06-69.18-7.02-263.36-137.19-525.87-276.03-787.94-415.67-22.87-12.19-37.68-10.88-58.31,4.08-182.87,132.61-367.24,263.16-549.5,396.61-33.39,24.45-62.95,31.33-103.45,22.44-179.76-39.46-353.4-93.71-507.86-197.28-168.8-113.19-277.28-267.13-309.53-470.02-26.62-167.49,7.54-327.63,64.11-484.44,7.03-19.5,16.39-38.24,22.29-58.04,52.85-177.61,193.08-258.63,351.88-319.04,211.03-80.28,430.64-122.9,654.18-147.95,205.65-23.05,411.8-30.17,618.32-15.28,301.27,21.72,597.08,68.76,878.51,185.96,137.93,57.44,240.39,146.41,302.16,285.87,67.85,153.18,122.89,308.06,125.49,511.27Zm-1564.73-932.54c-191.16-1.96-418.19,19.62-642.44,66.48-166.46,34.78-330.64,78.79-480.35,162.41-44.62,24.92-86.45,57.73-122.78,93.77-36.96,36.66-36.04,77.76,1.81,113.59,38.18,36.14,80.79,69.93,126.75,95.1,157.22,86.12,328.46,132.68,503.44,165.97,15.53,2.96,35.59-3.48,50.08-11.67,187.45-105.87,374.65-212.21,560.9-320.18,32.12-18.62,60.23-21.52,95.14-9.11,250.13,88.96,501.11,175.53,751.03,265.08,38.67,13.86,73.87,16.96,112.94,6.05,104.87-29.29,211.61-54.1,302.47-118.08,97.96-68.97,99.28-163.5,4.39-234.89-87.21-65.61-187.45-105.25-289.93-138.58-303.89-98.83-617.16-135.13-973.45-135.96Zm-612.61,1585.14c0-273.14,.24-540.48-1.05-807.81-.04-8.78-14.18-22.72-24.12-25.39-64.99-17.42-131.66-29.03-195.86-48.8-173.37-53.38-346.81-107.97-472.53-254.14-4.24,9.04-8.36,17-11.78,25.25-43.03,103.65-68.52,211.43-78.67,323.26-19.6,215.98,44.04,399.96,210.48,542.66,163.69,140.34,362.46,200.72,573.54,244.97Zm1482.69-115.15c-71.21-3.31-108.96-43.75-108.72-112.83,.24-70.15,38.62-109.56,107.97-111.57v-236.33c-50.52,12.86-91.5,3.72-120.37-37.49-22.23-31.73-22.09-66.8-2.84-99.25,27.69-46.67,71.73-55.03,126.56-41.21,0-35.63-2.45-67.86,.67-99.54,3.28-33.36-10.4-47.07-40.97-57.65-236.23-81.72-471.83-165.28-707.68-248.1-14.04-4.93-28.6-8.37-42.48-12.37-2.66,6.21-4.51,8.53-4.52,10.84-.37,236.42-.83,472.83-.05,709.25,.03,10.19,9.16,24.5,18.2,29.79,41.3,24.15,84.09,45.76,125.95,68.08,44.18-54.68,96.44-65.73,155.14-34.24,58.91,31.6,76.22,77.23,53.23,144.66,144.98,76.02,290.3,152.22,439.92,230.67v-102.72Zm61.88,113.26c94.65-30.4,177.91-74.46,254.66-130.33,136.13-99.1,248.82-219.91,297.46-383.99,64.97-219.21-6.43-421.36-95.94-624.84-40.19,93.47-115.28,139.73-198.97,171.34-83.19,31.42-169.41,54.8-257.21,82.63v885.19Zm-1489.43-17.59c189.47-136.05,373.1-267.3,555.44-400.31,11.39-8.31,17.79-30.46,17.87-46.22,1.14-222.02,.8-444.05,.69-666.07,0-9.65-1.21-19.29-2.15-33.39-15.65,8.21-27.05,13.68-37.97,19.98-160.6,92.61-319.95,187.48-482.43,276.67-46.82,25.7-62.85,55.15-50.53,104.16,72.38,17.38,108.82,71.31,105.23,156.41-3.48,82.5-38.75,129.44-106.15,139.78v448.99Zm-1.66-493.53c10.36,.47,16.14,2.46,20.24,.65,43.08-18.99,46.57-60.08,48.21-97.9,1.74-39.91-3.31-81.72-42.04-106.27-15.49-9.82-26.67-2.33-26.55,18.09,.37,60.61,.13,121.21,.13,185.42Zm1429.28-145.1c-2.28-55.26-11.28-66.68-47.37-64.21-29.22,2-56.79,31.08-56.04,59.11,.77,28.92,32.72,56.71,64.04,54.93,34.77-1.98,48-20.24,39.37-49.83Zm2.46,429.17c0-12.88,2.18-26.27-.65-38.49-2.53-10.94-8.6-26.54-16.73-29.27-9.23-3.1-25.3,2.71-33.5,10.08-28.88,25.97-27.99,94.78,1.19,119.72,7.79,6.66,23.27,13.01,30.39,9.55,9-4.37,15.96-18.25,18.5-29.25,3.11-13.45,.74-28.17,.8-42.34Zm-611.82-107.98c43.09,23.11,86,46.12,129.47,69.43,18.52-45.59,7.75-70.27-32.83-91.08-42.98-22.05-74.94-15.63-96.64,21.65Z" stroke="#000" stroke-miterlimit="10" stroke-width="37"/><path d="M1195.84,2010.26c-123.74-31.34-242.46-58.14-347.11-122.61-109.03-67.17-107.36-149.86,3.19-213.83,16.62-9.62,40.71-34.32,55.21-9.5,15.97,27.33-20.73,27.72-35.14,36.27-89.69,53.22-91.21,106.56-.99,159.51,96.38,56.57,204.16,82.15,311.11,109.45,5.74,1.46,13.22,.88,16.96,4.37,6.64,6.2,16.29,15.94,14.96,22.11-1.45,6.76-13.89,11.17-18.19,14.22Z" stroke="#000" stroke-miterlimit="10" stroke-width="37"/><path d="M1130.03,1566.24c-16.56,9.36-25.51,16.58-35.72,19.76-28.35,8.83-57.21,15.98-85.88,23.79,1.15-9.27-.63-24.63,3.92-26.81,28.68-13.78,58.42-25.69,88.7-35.47,5.42-1.75,14.98,9.31,28.98,18.73Z" stroke="#000" stroke-miterlimit="10" stroke-width="37"/><path d="M2184.28,2215.2c-36.99-2.54-78.04-16.07-106.59-54.31-32.76-43.88-15.15-99.66,36.85-115.33,46.17-13.91,90.14-5.07,129.67,21.51,34.15,22.96,47.25,60.98,35.58,94.97-10.99,32.01-46.51,53.83-95.51,53.15Zm-28.41-146.19c-15.69,10.79-44.4,20.41-48,35.88-3.54,15.22,15.09,40,30.21,53.74,11.94,10.84,34.49,17.63,50.22,14.75,20.11-3.69,38.11-18.91,57.01-29.16-10.4-17.61-17.78-38.47-32.14-51.82-12.12-11.26-32.35-13.79-57.31-23.38Z" stroke="#000" stroke-miterlimit="10" stroke-width="37"/><path d="M2480.7,2356.42c-.37,57.18-38.28,106.96-81.69,107.27-43.88,.32-80.98-48.14-81.62-106.61-.01-1.3-.03-2.6,0-3.9,1.18-58.68,38.98-106.66,82.91-105.26,43.62,1.39,80.77,51.53,80.4,108.5Zm-125.55-5.6c1.92,11.3,.5,25.13,6.56,33.62,9.67,13.54,24.28,32.46,36.87,32.51,12.46,.05,31.88-18.45,35.92-32.39,6.13-21.1,6.25-46.71-.12-67.66-4.06-13.36-23.85-28.91-37.71-30.07-10.82-.91-25.57,17.28-34.41,29.89-6.05,8.62-4.95,22.25-7.12,34.08Z" stroke="#000" stroke-miterlimit="10" stroke-width="37"/><path d="M1382.96,2694.09c.22-52.13,60.91-116.59,125.1-134.58,38.52-10.8,72.21-7.26,96.74,27.65,24.21,34.44,12.44,66.77-8.8,97.14-31,44.32-71.24,75.18-126.77,81.53-49.38,5.64-86.46-25.41-86.27-71.73Zm78.58,30.02c45.5,.19,100.06-41.12,113.59-86,9.84-32.65-.87-46.06-35.41-44.31-43.79,2.22-98.23,42.46-113.08,83.58-10.59,29.34,2.3,46.59,34.89,46.73Z" stroke="#000" stroke-miterlimit="10" stroke-width="37"/><path d="M1678.32,2308.51c-52.67-.18-90.75-26.26-98.4-60.88-8.39-37.95,10.22-74.45,51.63-93.76,18.16-8.47,39.1-14.23,59.03-15.02,47.9-1.9,86.9,28.17,91.29,66.36,4.99,43.36-25.37,85-71.28,96.92-13.62,3.53-27.64,5.49-32.27,6.38Zm-6.33-24.88c27.51-19.14,50.11-32.07,68.46-49.48,5.02-4.77,.25-31.7-5.13-33.54-24.12-8.24-52.59-19.73-74.62-13.31-19.35,5.64-32.22,33.51-47.95,51.56,17.93,13.55,35.87,27.11,59.24,44.77Z" stroke="#000" stroke-miterlimit="10" stroke-width="37"/></svg>