<?xml version="1.0" encoding="UTF-8"?><svg id="Layer_1" xmlns="http://www.w3.org/2000/svg" width="4000" height="4000" viewBox="0 0 4000 4000"><path d="M3625.29,1904.49c-5.01,357.59-77.51,638.89-272.28,878.69-105.49,129.88-236.51,224.91-403.06,260.75-218.62,47.04-407.33-19.48-570.04-164.45-175.44-156.31-274.99-357.95-325.22-584-74.88-336.96-46.86-664.05,111.68-974.48,84.99-166.42,204.06-302.78,372.72-389.45,237.74-122.17,512.88-79.67,722.95,111.28,176.08,160.05,275.8,363.97,325.29,592.66,22.88,105.73,30.6,214.73,37.96,269.01Zm-938.33,985.18c-4.46-14.72-7.22-24.23-10.22-33.68-34.6-109.08-41.84-220.4-31.24-334,15.99-171.31,63.9-334.91,115.2-497.92,65.15-207.01,144.01-410.19,179.35-625.65,19.27-117.47,23.22-234.49-21.82-348.42-9.24-23.38-23.29-34.43-48.6-36.31-96.68-7.18-188.31,8.89-273.88,55.5-135.98,74.08-230.03,187.83-298.84,323.23-129.02,253.89-158.97,522.81-111.43,801.23,33.28,194.94,105.98,373.14,239.69,522.32,70.75,78.94,154.01,139.97,261.79,173.69Zm405.17-1790.43c0,11.68-.99,19.16,.15,26.31,16.1,100.94,16.49,202.8-7.32,301.36-39.11,161.88-83.08,322.79-131.2,482.24-64.59,214.03-144.68,423.82-161.93,649.6-8.44,110.41,5.28,216.67,52.15,318.17,12.26,26.54,29.87,35.74,54.86,26.01,64.67-25.16,133.52-44.37,191.66-80.5,126.95-78.89,210.27-198.25,272.16-332.12,98.06-212.11,127.87-435.6,104.9-667.01-20.32-204.82-82.53-394.52-205.78-561.48-46.23-62.63-99.86-118.13-169.65-162.58Z"/><path d="M873.11,2232.82c-6.54-74.68-23.71-144.71-16.4-212.09,18.43-170.02,130.78-285.07,302.86-326.75,325.42-78.83,732.58,161.69,821.07,485.02,65.96,241.03-78.74,458.56-327.21,492.01-20.28,2.73-40.49,6.07-60.73,9.12-13.47,202.54-131.12,328.02-306.31,399.64-245.11,100.19-487.53,87.62-711.75-61.03-133.68-88.63-209.79-214.43-190.01-382.09,13.88-117.69,79.77-205.84,171.34-276.03,89.17-68.35,191.41-106.56,301.68-124.62,7.46-1.22,14.82-3.02,15.48-3.16Zm527.02,593c-2.8-3.11-5.6-6.21-8.4-9.31-66.38-5.88-134.76-3.62-198.71-19.37-122.62-30.2-242.62-71-363.92-106.68-79.35-23.34-158.9-48.71-243.16-39.96-57.54,5.98-64.62,18.57-52.49,75.63,.8,3.78,2.48,7.37,3.48,11.11,22.82,84.78,81.02,141.71,154.6,180.71,188.83,100.09,382.08,101.93,573.11,7.36,49.45-24.48,90.55-65.86,135.48-99.48Zm346.47-344.96c-107.37-48.61-187.36-123.27-258.12-209.07-47-56.98-92.78-114.99-140.76-171.13-75.28-88.09-168.72-143.34-286.1-155.21-22.23-2.25-32.65,4.21-41.26,23.86-27.02,61.72-21.26,123.3-4.53,186.04,13.58,50.93,39.9,74.44,97.19,82.97,182.58,27.19,337.9,104.38,434.07,272.82,5.16,9.03,19.35,18.96,28.82,18.48,58.33-2.97,115.58-12,170.68-48.78Zm-1118.03,11.93c71.8,15.59,140.66,27.13,207.53,45.8,127.97,35.72,253.6,80.61,382.67,111.29,59.59,14.17,125.05,5.52,187.75,3.83,25.62-.69,33.05-16.36,21.98-43.13-24.75-59.8-65.79-105.25-118.2-140.41-137.5-92.25-289.23-112.39-449.26-83.1-86.07,15.75-164.75,48.84-232.46,105.72Zm1219.52-134.49c-2.1-44.99,1.61-82.91-6.46-118.13-36.5-159.17-143.69-262.42-280.69-338.27-101.05-55.95-209.69-82.43-338.48-68,152.19,64.79,248.39,177.14,341.2,294,37.73,47.51,78.23,93.21,121.01,136.2,42.14,42.34,92.54,73.67,163.42,94.2Z"/></svg>