<?xml version="1.0" encoding="UTF-8"?><svg id="Layer_1" xmlns="http://www.w3.org/2000/svg" width="4000" height="4000" viewBox="0 0 4000 4000"><path d="M1422.06,3102.33c-105.92,0-206.86-19.94-300.02-59.26-92.57-39.08-174.59-96.08-243.79-169.43-71.27-75.55-126.93-166.41-165.42-270.04-40.8-109.87-61.49-232.14-61.49-363.42s21.85-288.1,63.18-443.78c41.53-156.41,101.22-309.32,172.63-442.2,74.73-139.06,161.37-253.87,250.56-332.02,94.27-82.62,189.94-124.51,284.35-124.51s190.07,41.89,284.34,124.51c89.19,78.15,175.83,192.96,250.56,332.02,43.45,80.86,82.57,169.14,115.89,261.1,34.82-9.78,70.43-18.69,106.61-26.66,2.18-.48,4.36-.96,6.54-1.43-36.13-101.39-78.99-198.84-126.86-287.93-39.57-73.63-82.42-141.32-127.35-201.19-47.49-63.28-97.6-118.17-148.93-163.16-55.21-48.38-112.52-85.87-170.33-111.44-62.73-27.75-126.82-41.82-190.47-41.82s-127.74,14.07-190.48,41.82c-57.81,25.57-115.11,63.06-170.32,111.44-51.34,44.99-101.45,99.88-148.94,163.16-44.93,59.87-87.78,127.56-127.35,201.19-75.62,140.73-138.75,302.34-182.57,467.35-43.87,165.26-67.06,329.01-67.06,473.55s23.13,280.97,68.75,403.8c43.93,118.29,107.78,222.34,189.78,309.26,161.26,170.95,384.36,265.09,628.19,265.09,97.73,0,192.12-15.12,280.53-44.26-47.07-23.71-91.37-52.31-132.39-85.35-48.04,9.05-97.52,13.61-148.14,13.61Z"/><path d="M3457.54,2040.12c-3.71-61.65-18.93-118.75-45.25-169.73-26.31-50.99-64.05-96.47-112.15-135.2-44.19-35.58-97.63-65.82-158.83-89.89-56.76-22.32-120.84-39.6-190.47-51.36-65.79-11.11-136.89-17.37-211.35-18.6-140.08-2.32-291.22,13.21-437.55,44.96-2.18,.47-4.36,.95-6.54,1.43-36.18,7.97-71.79,16.88-106.61,26.66-108.24,30.36-208.9,69.02-295.46,113.7-115.05,59.39-213.32,133.36-292.1,219.86-75.94,83.4-132.41,176.8-167.85,277.61-69.72,198.35-53.03,414.3,47,608.08,52.06,100.84,122.08,186.77,205.76,254.17,41.02,33.04,85.32,61.64,132.39,85.35,41.41,20.87,84.97,37.96,130.32,50.99,70.41,20.22,143.71,30.37,218.91,30.37,34.5,0,69.41-2.13,104.61-6.41,116.14-14.11,233.37-51.38,348.41-110.77,114.41-59.06,234.51-144.28,347.3-246.46,112.6-101.99,214.62-217.89,295.04-335.15,42.12-61.41,78.2-123,107.25-183.06,30.74-63.57,53.77-125.82,68.45-185.01,15.83-63.84,22.13-124.92,18.72-181.54Zm-131.31,153.62c-25.12,101.33-80.02,215.57-158.77,330.39-75.38,109.91-171.26,218.76-277.25,314.78-105.46,95.53-217.03,174.84-322.63,229.35-102.76,53.05-206.79,86.25-309.2,98.7-30.52,3.7-60.72,5.56-90.54,5.56-64.42-.01-127.03-8.65-186.96-25.86-4.88-1.4-9.73-2.86-14.55-4.37-48.74-15.24-94.89-36.02-138.03-62.11-27.13-16.4-53.07-34.9-77.72-55.45-68.21-56.86-124.44-127.61-167.12-210.3-42.69-82.69-67.8-169.5-74.64-258.04-6.79-87.93,4.65-174.86,34-258.36,30.25-86.07,78.76-166.14,144.18-237.97,69.46-76.28,156.78-141.85,259.54-194.89,81.11-41.87,176.17-78.13,278.86-106.57,31.02-8.6,62.73-16.48,94.97-23.59,5.96-1.31,11.93-2.6,17.91-3.85,125.09-26.31,253.31-40.05,373.56-40.05,8.61,0,17.19,.07,25.73,.21,139.2,2.31,264.13,23.73,361.28,61.93,101.94,40.09,172.71,97.4,210.37,170.34,37.65,72.94,43.37,163.84,17.01,270.15Z"/></svg>