<?xml version="1.0" encoding="UTF-8"?><svg id="Layer_1" xmlns="http://www.w3.org/2000/svg" width="4000" height="4000" viewBox="0 0 4000 4000"><g><path d="M3669.76,2482.19v-237.19c0-86.06-54.35-159.67-130.53-188.3,9.99-21.11,19.07-42.89,27.19-65.38,58.08-160.94,85.42-323.58,49.52-494.37-30.13-143.36-80.81-277.25-170.39-393.52-24.01-31.15-42.3-59.17-48.36-99.43-13.43-89.15-61.91-161.97-119.29-229.92-39.47-46.74-85.29-66.92-145.38-48.87-16.66,5.01-27.31-.35-34.64-17.29-10.14-23.44-22.74-45.86-34.84-68.42-27.74-51.71-86.8-69.89-136.12-42.23-47.94,26.9-62.97,84.72-35.75,135.24,13.39,24.87,25.62,50.37,38.87,76.58-7.56,5.41-12.93,9.38-18.43,13.15-49.66,34.01-61,61.77-48.61,120.45,4.54,21.47,9.79,42.82,14.52,64.24-26.47,3.21-53.5,11.77-81.53,25.74-4.04,2.01-8.12,3.94-12.85,6.18-.37,.18-.75,.35-1.13,.54,.01-.1,.02-.19,.03-.28,.54-4.28,.97-7.65,1.33-11.1,6.98-65.3-.74-122.24-23.59-174.06-7.07-16.05-16.14-20.75-22.49-21.86-6.17-1.08-15.92,.15-27.37,12.14l-.34,.34c-15.97,16.73-32.49,34.02-45.07,53.65-16.33,25.48-31.56,52.35-46.28,78.33-5.24,9.23-10.62,18.73-16.04,28.16-30.97-38.98-70.47-72.27-117.49-99.02-11.25-6.41-26.67-15.18-41.12-.98-13.67,13.44-6.53,27.23-.23,39.4l.82,1.59c29.86,57.99,44.66,124.27,46.59,208.58,.05,2.44-2.75,7.07-4.91,8.13-18.83,9.14-37.55,17.63-57.37,26.6-4.97,2.25-9.96,4.52-14.97,6.8-25.97-72.08-73.5-130.13-141.32-172.58-2.84-1.77-5.7-8.83-4.99-11.15,3.55-11.59,7.07-23.41,10.47-34.84,12.02-40.41,24.46-82.21,40.66-121.58,6.51-15.81,18.22-29.29,30.62-43.56,6.6-7.59,13.42-15.44,19.34-23.64,7.16-9.92,14.1-20.46,13.41-30.53-1.37-20.22-24.03-20.35-31.47-20.39h-1.19c-48.97,0-95.24,16.71-141.41,51.04-9,6.7-17.48,14.02-26.46,21.78-2.37,2.05-4.78,4.14-7.26,6.26-.16-2.04-.31-3.83-.47-5.62-7.21-78.85-30.66-143.7-71.67-198.26-12.36-16.45-23.14-19.08-30.01-18.39-9.45,.96-17.47,8.24-23.84,21.67-22.76,47.89-41.5,92.31-57.27,135.81-6.38,17.59-9.34,35.89-12.47,55.26-1.04,6.46-2.11,13.09-3.32,19.71-.07-.05-.13-.09-.19-.14-3.35-2.54-6.51-4.93-9.55-7.34-45.76-36.34-100.18-62.83-161.73-78.75-9.23-2.39-25.79,1.83-31.26,9.97-5.06,7.54-3.29,25.27,3.26,32.7,32.69,37.06,74.99,95.66,112.17,220.79,3.95,13.28,1.96,18.92-9.24,26.23-76.92,50.24-124.59,118.63-141.68,203.27-3.96,19.63-5.33,39.82-6.65,59.34-.45,6.66-.91,13.5-1.48,20.22-4.68-2.52-9.37-5.09-13.95-7.59-15.31-8.38-31.13-17.05-47.47-24.1-11.38-4.91-14.41-9.59-13.51-20.86,5.35-66.98,17.43-116.39,39.17-160.23,4.84-9.76,4.42-25.85-.89-34.43-7.31-11.81-20.98-12.88-37.51-2.96-2.44,1.46-4.97,2.92-7.41,4.32-7.38,4.24-15,8.62-21.72,14.14-17.87,14.68-35.68,30.05-52.9,44.92-5.56,4.79-11.12,9.6-16.71,14.39v-.02c-1.75-3.9-3.63-8.1-5.49-12.31-18.95-42.94-45.29-81.37-78.31-114.23-11.89-11.83-21.64-12.82-27.74-11.56-6.04,1.24-14.52,5.93-20.68,21.22-7.61,18.92-14.1,36.05-16.48,54.15-1.85,14.14-2.99,28.16-3.89,42.48-10.07-5.97-24-9.5-33-6.2-22.15,8.11-42.96,19.69-62.56,31.46-11.18,.29-22,1.91-32.61,4.87-10.55,2.93-23.98,13.95-25.49,23.74-.44,2.84,.18,5.98,1.92,9.5-41.4,32.45-75.51,70.49-101.78,113.59-8.13-9.17-16.32-18.6-24.27-27.75-20.96-24.14-42.63-49.1-65.77-72.22-40.09-40.06-92.1-66.78-154.6-79.4-16.2-3.28-32.82-5.57-48.89-7.79-14.2-1.96-28.88-3.99-43.13-6.68-19.55-3.69-36.5,2.55-44.23,16.29-6.58,11.68-5.41,30.02-.85,42.1,5.17,13.68,12.33,26.7,19.26,39.29,4.54,8.25,9.23,16.77,13.27,25.34,29.91,63.39,77.52,114.55,124.82,161.3-3.27-.29-6.48-.6-9.65-.9-14.05-1.35-27.33-2.62-40.56-1.94-8.11,.43-16.41,.75-24.44,1.07-31.82,1.26-64.73,2.56-95.82,9.98-49.86,11.91-93.91,38.57-126.73,60.46-70.33,46.93-113.7,114.27-132.6,205.88-6.1,29.58-10.71,62.11-14.5,102.38-2.24,23.83-2.46,48.99-.67,74.81,2.17,31.03,6.79,61.72,11.03,87.66,1.09,6.65,2.14,13.45,3.15,20.03,4.14,26.85,8.41,54.61,16.65,80.79,8.34,26.52,17.62,53.45,28.01,81.26-32.77,35.78-52.79,83.42-52.79,135.66v237.19c0,92.71,63.08,170.95,148.57,194.1v324.37c-85.49,23.15-148.57,101.39-148.57,194.1v237.19c0,110.87,90.2,201.07,201.07,201.07H3468.69c110.87,0,201.07-90.2,201.07-201.07v-237.19c0-92.71-63.08-170.95-148.57-194.1v-324.37c85.49-23.15,148.57-101.39,148.57-194.1Zm-269.5-1335.23c78.3,104.3,129.17,221.52,155.35,349.6,31.16,152.51,14.39,300.28-34.68,447.06-11.76,35.19-25.86,68.64-42.08,100.56-3.37-.16-6.75-.25-10.16-.25h-512.14c98.08-123.6,171.6-261.33,205.01-417.72,14.91-69.79,23.22-142.12,24.17-213.43,.89-67.32-9.33-135.2-19.26-202.15-9.48-63.94-10.99-64.28,53.02-75.93,36.52-6.64,74.12-11.89,108.42-25.08,41.74-16.05,56.62,16.38,72.35,37.34Zm-286.78-308.84c11.87-9.73,20.9-23.42,29.62-36.4,16.59-24.69,33.34-31,57.22-13.37,20.24,14.94,37.54,34.54,53.88,53.97,46.67,55.48,76.48,125.91,86.52,200.46-57.37,12.71-112.73,24.24-167.66,37.54-20.2,4.9-28.12-1.35-32.26-20.81-12.58-59.21-26.37-118.18-40-177.17-4.01-17.34-2.89-31.45,12.68-44.22Zm2.84,476.62c18.82,223.86-32.25,429.44-157.92,617.39-26.73,39.97-55.77,77.18-87.11,111.8h-203.62c4.38-7.58,8.73-15.21,13.05-22.88,4.69-3.17,9.33-6.41,13.91-9.73,172.69-125.1,284.92-295.56,335.93-501.53,19.57-79.02,16.26-163.84,21.95-246.11,2.17-31.36,.35-63,.35-97.15,15.01-2.96,28.25-5.57,42.85-8.46,7.22,53.86,16.28,105.06,20.61,156.67Zm-151.08-655.44c26.42-12,39.79,4.33,51.07,24.71,18.77,33.89,37.73,67.67,59.7,107.03-11.06,6.59-26.2,19.22-43.61,25.08-21.25,7.15-37.89,2.34-45.5-25.14-7.18-25.94-22.29-49.73-34.26-74.29-13.4-27.46-9.54-47.33,12.6-57.39Zm-29.96,223.65c9.1-11.52,22.43-18.33,41.44-10.05,18.07,7.87,39.76,7.4,63.03,11.1,14.46,68.67,29.4,139.69,44.63,212.04-46.06,9.83-85.14,18.18-127.61,27.24-2.26-19.51-3.96-38.92-6.27-58.16,1.58-1.17,3.25-2.29,4.87-3.38,8.4-5.65,17.92-12.06,16.3-26.13-2.02-17.68-16.37-23.03-30.13-25.93-.04-.01-.09-.02-.13-.03-5.92-29.34-12.82-58.51-16.98-88.09-1.74-12.39,3.07-28.77,10.85-38.61Zm-18.37,517.73c17.43-58.73,24.55-120.71,33.74-181.61,3.77-24.98,12.83-37.75,39.54-35.48,17.92,225.75-24.55,431.9-165.09,613.28-21.42,27.63-44.12,53.4-68.08,77.48,49.07-102.21,94.01-212.29,135.51-331.7,14.37-41.35,20.15-81.32,17.36-119.78,2.46-7.32,4.8-14.71,7.02-22.19Zm-29.38-279.8c1.59-2.16,3.26-4.26,5-6.33,3.03,65.62-4.74,130.7-18.27,194.82-12.66-21.92-28.65-43.2-47.95-63.79-6.58-7.02-7.27-10.79-3.24-17.54,6.95-11.62,13.68-23.64,20.18-35.27,13.6-24.28,27.66-49.4,44.28-71.89Zm-300.87-37.51c4.8,11.61,10.68,25.84,27.31,25.84,1.5,0,3.09-.12,4.77-.36,19.24-2.79,21.83-19.2,23.72-31.18,9.21-58.4,35.85-114.11,81.42-170.24h1.31c.75,8.52,1.73,17.11,2.67,25.46,2.44,21.57,4.97,43.86,3.75,65.42-1.41,25.03-7.5,50.41-13.38,74.96-1.41,5.9-2.88,12.01-4.26,18.02-2.8,12.27-5.99,26.18,8.3,36.4,17.33,12.39,31.81-.49,38.77-6.67,32.99-29.35,65.6-47.99,99.37-56.78l-87.14,136.38c-57.68-36.37-119.15-54.67-183.33-54.67-14.01,0-28.16,.87-42.42,2.62l-22.53-148.42c29.7,26.94,49.41,53.59,61.67,83.22Zm-101.04,136.69c59.59-24.99,127.18-27.52,190.32-7.14,63.15,20.39,115.91,61.78,148.55,116.57,12.92,21.68,22.06,43.74,27.42,66.09,8.75,36.38,7.46,73.53-3.9,111.05-3.65,12.05-7.81,24.22-11.84,35.98-4.22,12.34-8.59,25.1-12.4,37.83-3.4,11.35-6.5,14.32-19.24,10.85-16.23-4.43-32.77-8.42-49.1-12.2-5.95-1.39-11.88-2.75-17.75-4.09-15.62-3.58-31.77-7.29-47.55-11.25-11.18-2.81-19.8-2.25-26.36,1.7-5.56,3.35-9.37,9.1-11.32,17.08-1.8,7.34-1.06,13.78,2.19,19.13,3.92,6.44,11.33,11.02,22.03,13.62,13.72,3.33,27.6,6.64,41.34,9.91,7.15,1.7,14.26,3.38,21.29,5.05,14.67,3.47,29.35,6.95,44.01,10.46,1.29,.31,2.58,.65,3.91,1.01,2.79,.74,5.76,1.61,9.23,2.62,1.6,.47,3.31,.97,5.17,1.5l-145.55,315.27c-1.62,1.2-3.25,2.39-4.88,3.57-8.67-2.08-17.19-4.11-25.57-6.12-28.26-6.78-54.95-13.18-81.87-19.13-12.8-2.83-21.6-2.6-27.71,.73-7.25,3.96-15.08,16.93-13.15,24.78,2.13,8.68,11.03,20.29,20.37,23.07,22.18,6.59,45.04,12.03,67.25,17.23-22.11,13.63-44.9,26.5-68.34,38.7h-193.29c-3.74-36.85-6.55-73.75-8.44-110.6-1.16-22.54-1.96-45.06-2.42-67.54-1.02-49.44-.35-98.68,2.01-147.46,.14-.2,.34-.48,.52-.71,.03-.05,.07-.1,.11-.15l22.6,5.29c27.31,6.39,54.84,12.84,82.38,19.27,1.11,.26,2.22,.54,3.34,.81,3.41,.83,6.94,1.68,10.54,2.26,9.15,1.46,17.04,.01,22.81-4.18,5.32-3.86,8.64-9.76,9.86-17.53,2.37-15-5.96-25.92-22.86-29.95-11.39-2.72-22.97-5.53-34.17-8.26-26.91-6.55-54.74-13.32-82.29-19.27-9.76-2.11-12.18-5.24-11.29-14.53,4.7-48.64,9.4-98.09,13.93-145.92,3.49-36.8,6.99-73.59,10.51-110.39,.09-.94,.67-2.23,1.4-3.86,.09-.19,.18-.39,.27-.59l25.32,5.95c31.3,7.37,62.43,14.68,93.55,21.98,4.51,1.06,9.17,2.15,13.99,2.85,16.65,2.43,28.4-5.31,31.42-20.71,2.99-15.24-5.11-26.76-21.67-30.82-20.84-5.12-42.07-10.12-62.6-14.96-13.18-3.1-26.8-6.31-40.19-9.52-6.36-1.53-12.75-3.27-19.53-5.11-1.88-.52-3.81-1.04-5.78-1.57,25.57-55.72,65.99-94.56,123.42-118.65Zm-611.91-396.39c44.55,22.36,78.21,49.92,102.69,84.05,7.37,10.27,17.46,24.35,37.08,17.08,18.38-6.8,16.98-23.71,15.95-36.06-5.31-64.14,7.83-129.92,40.2-201.1,1.88-4.14,4.06-8.21,6.57-12.92,.32-.6,.65-1.22,.98-1.84,19.23,30.23,31.24,62.35,35.73,95.57,4.38,32.44,4.94,66.07,5.47,98.59,.1,6.01,.2,12.01,.32,18,.26,12.43,.54,26.52,16.59,33.44,17.06,7.37,27.63-3.53,34.92-13.86,32.61-46.1,66.01-76.56,105.13-95.84,.77-.38,1.55-.75,2.31-1.11l-66.48,186.05c-43.67-15.79-88.29-23.74-132.59-23.58-45.23,.15-90.3,8.71-134.03,25.45l-70.84-171.92Zm95.34,455.77c-.66-16.51-11.96-25.6-31.82-25.6h-.14c-31.53,.07-63.58,.06-94.58,.04-12.45,0-24.89-.01-37.34-.01h-18.57c11.04-63.47,41.23-115.39,92.19-158.6,65.71-55.71,154.79-80.7,244.41-68.55,86.78,11.77,162.98,57.3,209.05,124.93,6.01,8.82,11.21,18.55,16.23,27.95,.81,1.51,1.61,3.01,2.42,4.51,16.85,31.34,20.93,53.59-5.74,81.39-39.94,41.64-50.09,99.43-56,150.98h-14.73c-15.71-.01-31.35-.01-46.98,.01h-3.75c-6.02,0-12.24-.01-18.39,.24-16.72,.66-26.9,10.83-26.56,26.54,.34,15.75,10.89,25.6,27.53,25.73,18.36,.14,36.77,.11,54.58,.08,5.9,0,11.75-.02,17.53-.02l-16.6,400.43h-80.48c-10.67-.01-21.34-.02-32.01,.01-15.57,.04-26.24,3.22-32.61,9.72-4.35,4.43-6.5,10.29-6.38,17.4,.38,23.29,22.91,26.04,39.83,26.09,21.93,.06,44.23,.05,65.8,.03h5c7.71,0,15.44,0,23.16-.01h17.95c-1.46,4.99-2.86,9.86-4.25,14.64-3.88,13.44-7.55,26.13-11.53,38.73-7.21,22.86-14.5,45.51-22.27,67.83h-288.36c-4.31-12.29-8.5-24.62-12.55-36.95,1.93-10.55,3.68-21.2,5.26-31.94,9.72-65.98,13.7-119.53,12.52-168.53-1.11-46-5.78-89.05-14.15-130.11,12.99,0,25.9,0,38.86-.03h.03c1.71,0,3.59,.16,5.59,.32,5.86,.49,11.93,1,16.3-2.22,13.24-9.74,19.98-18.25,20.62-26.04,.76-9.34-12.81-21.75-21.73-24.59-9.03-2.88-18.9-2.42-28.44-1.97-3.46,.16-7.02,.35-10.43,.32-11.4-.03-22.88-.04-34.35-.04-1.52-5.17-3.12-10.31-4.79-15.43-21.35-65.53-46.03-116.28-77.69-159.73-8.91-12.23-18.46-23.74-28.65-34.53-.7-1.67-1.42-3.31-2.16-4.92-11.47-25.05-12.83-51.15-14.27-78.77-.36-6.92-.73-14.03-1.27-21.24h16.97c15.04,.01,29.47,.01,43.9,0,8.64,0,17.29,.01,25.93,.01,21.65,.02,44.03,.04,66.04-.09,11.51-.07,20.09-2.99,25.51-8.67,4.55-4.76,6.69-11.27,6.36-19.34Zm-603.3-67.18c15.88,9.48,32.31,19.3,48.31,29.17,1.71,1.06,3.34,2.76,5.07,4.55,2.79,2.9,5.67,5.89,9.69,7.09l.49,.15c10.21,3.04,22.91,6.83,29.71,1.59,7.78-6.01,11.82-20.84,10.58-30.4-1.38-10.63-4-21.18-6.54-31.38-2.98-11.97-6.05-24.36-6.98-36.54-1.4-18.31-.35-37.25,.66-55.57,.38-6.85,.76-13.9,1.03-20.9l1.06-.07c31.16,38.57,50.62,79.06,59.46,123.73,.21,1.08,.27,2.41,.32,3.82,.13,3.2,.27,6.84,2.53,9.58,1.32,1.6,2.65,3.35,4.06,5.2,5.9,7.77,12.01,15.8,20.14,17.2,9.13,1.59,21.31-10.5,26.84-18.5,11.55-16.7,22.32-34.28,32.74-51.29,3.14-5.14,6.37-10.42,9.62-15.65l-15.74,109.06c-64.91-5.89-125.85,8.41-181.25,42.55l-61.68-99.29c3.29,1.96,6.58,3.93,9.88,5.9Zm-174.49,174.45c5.08-19.78,9.89-38.45,18.55-54.58,11.55-21.5,28.57-42.94,53.55-67.47,13.32-13.09,26.22-24.53,38.94-34.5,3.07,2.77,5.88,5.69,8.3,8.91,13.45,17.86,25.34,37.47,36.84,56.44,6.1,10.06,12.4,20.45,18.88,30.5,.37,.57,.72,1.14,1.04,1.69-10.94,3.52-21.58,7.12-31.78,10.57-27.31,9.24-54.4,21.72-78.31,32.72-16.9,7.79-33.14,16.13-51.95,25.78-6.25,3.21-12.64,6.5-19.36,9.91,1.91-6.8,3.62-13.46,5.3-19.97Zm-340.35-210.92c69.71,8.78,135.69,42.11,186.34,94.28,44.16,45.48,72.67,101.42,77.11,150.82-44.36-12.83-103.16-50.73-158.73-102.52-55.18-51.43-93.82-104.16-104.72-142.58Zm-303,645.99c.03-34.32,4.5-69.34,8.82-103.2,1.43-11.22,2.92-22.82,4.21-34.23,4.38-38.45,18-73.49,40.48-104.15,16.92-23.08,38.72-43.58,55.82-58.87,40.75-36.44,94.01-59.19,158.3-67.62,10.31-1.35,20.8-1.88,31.39-1.88,20.52,0,41.38,2.01,61.78,3.97,3.84,.37,7.67,.74,11.5,1.1,33.57,3.12,67.94,8.36,102.14,15.57,40.72,8.59,80.52,18.83,118.28,30.44,13.55,4.17,25.76,2.56,38.4-5.07,15.18-9.16,30.31-18.92,44.94-28.35,18.96-12.23,38.56-24.87,58.37-36.27,11.94-6.87,24.74-12.46,37.58-17.31,1.84-.69,3.69-1.38,5.54-2.04,1.86-.68,3.71-1.34,5.57-1.99,4.02-1.41,8.02-2.76,11.98-4.07,6.76-2.23,13.51-4.5,20.27-6.77,7.08-2.37,14.2-4.76,21.37-7.13,2.3-.76,4.6-1.51,6.9-2.26,2.42-.8,4.85-1.58,7.28-2.36,22.36-7.18,45.05-13.85,67.81-18.79,40.56-8.8,84.41-7.87,130.32,2.77,46.36,10.74,87.16,29.81,121.75,56.83-21.96,5.36-42.86,10.45-63.61,15.13-13.23,2.99-30.51,9.54-27.93,31.93,.8,6.96,3.98,12.6,9.2,16.3,7.16,5.09,17.59,6.27,30.16,3.44,22.93-5.17,46.04-10.65,70.51-16.46,8.93-2.13,18.12-4.3,27.63-6.54,.64,.7,1.28,1.4,1.91,2.11,1.51,1.69,3.01,3.4,4.48,5.11,1.53,1.78,3.02,3.56,4.49,5.37,11.23,13.75,20.92,28.47,27.68,45.3,5.15,12.82,10.98,25.63,16.62,38.01,.68,1.49,1.35,2.98,2.03,4.47,1.79,3.94,3.59,7.91,5.35,11.89,1.85,4.13,3.66,8.28,5.42,12.46,3.29,7.77,6.42,15.62,9.22,23.54,.46,1.33,.92,2.66,1.37,4,.46,1.33,.9,2.66,1.32,4,1.07,3.3,2.06,6.62,2.98,9.94,2.59,9.35,4.87,18.82,6.89,28.3,.29,1.34,.57,2.67,.84,4,.27,1.33,.54,2.67,.81,4,6.24,31.45,9.84,62.84,12.57,90.76,2.14,21.99,3.43,42.5,3.88,61.82,.14,5.84,.2,11.56,.17,17.19-.01,5.15-.09,10.22-.24,15.21-.24,8.33-.66,16.43-1.27,24.34-1.68,21.86-4.47,44.54-8.56,69.12-.45,2.71-.92,5.44-1.4,8.2-.47,2.66-.95,5.36-1.45,8.07-2.64,14.46-5.72,29.6-9.26,45.63-2,9.09-4.16,18.16-6.46,27.19H687.26c-33.86,0-65.79,8.41-93.81,23.25-13.12-40.74-22.11-82.69-30.82-125.55-7.3-35.93-14.76-78.27-14.72-119.85Zm3016.85,1372.98v237.19c0,52.97-43.1,96.07-96.07,96.07H687.26c-52.97,0-96.07-43.1-96.07-96.07v-237.19c0-52.97,43.1-96.07,96.07-96.07H3468.69c52.97,0,96.07,43.1,96.07,96.07Zm-2825-201.07v-310.43H3416.19v310.43H739.76Zm2728.93-415.43H687.26c-52.97,0-96.07-43.1-96.07-96.07v-237.19c0-3.79,.22-7.54,.66-11.22,.26-2.26,.6-4.5,1.02-6.71,.39-2.08,.85-4.13,1.38-6.16,5.16-19.9,16.55-37.32,31.97-50.04,1.05-.87,2.11-1.71,3.2-2.52,1.09-.83,2.2-1.64,3.32-2.4,15.5-10.74,34.29-17.02,54.52-17.02H3468.69c6.1,0,12.07,.57,17.85,1.67,44.47,8.39,78.22,47.53,78.22,94.4v237.19c0,52.97-43.1,96.07-96.07,96.07Z"/><path d="M3313.69,1392.8c3.92,43.13,10.97,86.47,9.61,129.5-4.87,154.08-36.18,301.98-113.72,437.4-11.23,19.6-15.78,38.61,7.01,50.39,21.29,11.01,36.89-.07,47.7-20.7,36.39-69.47,69.05-139.37,85.96-217.52,18.6-85.92,35.98-171.12,36.19-259.5-2.9-42.25-5.55-84.52-8.79-126.74-1.7-22.2-10.96-39.28-36.48-36.44-25.6,2.85-29.5,21.43-27.49,43.6Z"/><path d="M3189.57,1004.79c-.61,18.12,12.37,34.24,32.12,29.04,12.08-3.18,22.1-17.39,30.84-28.4,3.35-4.23,.55-13.34,.55-20.22-2.77-56.48-20.16-107.42-58.28-150.18-12.9-14.48-30.64-20.16-43.22-5.02-7.97,9.6-12.71,33.39-6.6,41.25,31.03,39.89,46.31,82.91,44.6,133.53Z"/></g><g><rect x="697.13" y="2217.5" width="52.13" height="52.13" rx="12" ry="12"/><rect x="697.13" y="2450.39" width="52.13" height="52.13" rx="12" ry="12"/><rect x="3404.19" y="2217.5" width="52.13" height="52.13" rx="12" ry="12"/><rect x="3404.19" y="2450.39" width="52.13" height="52.13" rx="12" ry="12"/></g><g><rect x="697.13" y="3170.84" width="52.13" height="52.13" rx="12" ry="12"/><rect x="697.13" y="3403.74" width="52.13" height="52.13" rx="12" ry="12"/><rect x="3404.19" y="3170.84" width="52.13" height="52.13" rx="12" ry="12"/><rect x="3404.19" y="3403.74" width="52.13" height="52.13" rx="12" ry="12"/></g></svg>