<?xml version="1.0" encoding="UTF-8"?><svg id="Layer_1" xmlns="http://www.w3.org/2000/svg" width="4000" height="4000" viewBox="0 0 4000 4000"><path d="M1329.15,1875.36c-15.5,3.53-29.9,6.81-46.48,10.59,6.72,22.84,14.25,43.89,19.06,65.54,19.81,89.16-8.73,162.94-78.81,218.21-65.07,51.32-139.05,58.2-212.66,19.54-78.72-41.35-121.32-111.13-113.71-198.53,4.7-53.99,31.59-106.33,50.55-158.68,8.34-23.03,21.73-44.23,33.9-68.4-5.86-2.92-10.14-5.29-14.6-7.23-75.05-32.64-114.59-90.23-115.23-171.65-1.22-153.35,0-306.73-.51-460.09-.39-116.79,101.94-213.41,240.77-174.72,44.81-104.72,123.43-146.06,237.42-118.23,31.45-80.36,88.88-128.94,176.15-127.17,82.78,1.68,138.14,48.41,167.73,127.44,48.73-12.12,96.44-14.67,142.2,8.11,45.72,22.76,75.49,59.67,93.73,109.77,68.85-17.62,133.01-11.4,186.88,39.23,53.02,49.82,60.55,114.09,53.5,186.73,15.79,0,28.21,0,40.63,0,358.57,0,717.14-.27,1075.7,.15,127.65,.15,214.2,117.2,174.75,234.64-24.75,73.7-91.59,120.45-173.66,120.48-357.49,.15-714.98,.07-1072.46,.07-12.85,0-25.71,0-43.29,0,0,17.31,.04,33.01,0,48.71-.4,129.25-102.02,209.61-227.6,180.09-4.06-.95-8.34-1-12.23-1.43-53.65,122.46-152.74,143.32-237,116.7-31.77,80.23-88.67,130.23-178.02,127.79-83.27-2.28-137.21-49.99-166.7-127.69Zm824.27-578.9v115.11c8.92,.52,15.27,1.22,21.63,1.22,360.39,.05,720.78,.09,1081.17-.13,11.73,0,24.15-.78,35.06-4.6,26.28-9.21,40.27-29.53,38.73-57.01-1.53-27.27-17-46.44-44.26-52.88-11.32-2.67-23.61-1.64-35.46-1.65-353.92-.07-707.83-.06-1061.75-.06h-35.11Zm-709.93,60.05h.65c0,98.22,.07,196.44-.03,294.66-.06,57.2-.9,114.41-.4,171.61,.32,36.45,20.99,58.71,53.66,60.43,34.06,1.79,58.37-19.71,62.44-56.05,1.19-10.67,.57-21.56,.55-32.35-.31-256.88-.69-513.75-.92-770.63-.04-45.33,1.44-90.67,.59-135.97-.69-36.81-21.17-60.55-51.72-63.75-39.13-4.09-64.63,21.18-64.71,65.79-.28,155.42-.11,310.84-.11,466.27Zm351.71-2.06c0-114.45,.13-228.9-.07-343.35-.07-43.54-23.03-70.3-58.79-69.66-34.82,.62-56.65,26.08-57.6,68.36-.63,28.06-.14,56.14-.14,84.22,0,194.35,0,388.7,.02,583.05,0,10.79-.56,21.68,.62,32.36,4.04,36.62,28.23,58.02,62.31,55.95,31.85-1.94,53.27-25.25,53.41-61.11,.47-116.61,.18-233.22,.23-349.83Zm-473.46,.62c0-117.7,.18-235.39-.11-353.09-.09-34.97-22.11-58.97-53.84-60.52-35.78-1.75-61.2,24.77-61.37,67.84-.32,77.72,1.76,155.44,1.64,233.16-.22,151.15-1.6,302.29-1.74,453.44-.04,44.89,22.27,69.73,59.05,69.62,37.46-.11,56.34-23.52,56.37-70.32,.07-113.38,.02-226.75,0-340.13Zm-350.92-1.91c0,76.54-.28,153.08,.12,229.62,.2,38.72,23.13,64.62,56.45,65.49,33.76,.88,60.35-26.72,60.48-65.85,.5-152,.48-304,.03-456-.12-40.31-24.99-67.41-59.07-67.31-34.23,.11-57.76,27.08-57.92,67.66-.3,75.46-.09,150.92-.08,226.38Zm946.22-1.07c0,79.75-.35,159.5,.17,239.25,.2,31.37,21.05,53.75,50.48,56.78,28.8,2.97,55.13-15.8,61.43-45.41,2.66-12.49,3.04-25.65,2.97-38.5-.56-102.35-1.8-204.69-2.16-307.03-.16-46.3,2.85-92.65,1.33-138.88-1.18-36.13-28.28-60.51-59.89-59.14-32.44,1.41-54.18,26.32-54.31,63.39-.26,76.52-.08,153.03-.03,229.55Zm-808.81,448.35c-4.69,.2-9.38,.4-14.07,.6-25.14,55.48-52.51,110.08-74.66,166.73-15.78,40.38,1.33,85.32,34.29,109.32,28.09,20.45,65.03,20.9,93.51,1.14,33.41-23.19,51.95-68.02,36.47-108.47-22.06-57.64-50.07-112.99-75.54-169.32Z"/><path d="M1472.51,2329.08c192.18,0,384.36,.23,576.54-.24,29.47-.07,56.38,2.85,72.73,31.41,15.89,27.75,4.12,50.97-10.78,75.07-37.52,60.73-33.95,115.35,12.15,169.82,100.47,118.7,161.75,253.88,173.29,409.71,14,189.17-69.7,462.98-286.98,568.23-60.79,29.45-123.14,47.97-192.35,47.38-226.71-1.93-453.47-2.32-680.17-.16-149.86,1.42-271.95-59.2-357.89-175.15-150.08-202.47-176.4-427.07-76.97-659.99,28.31-66.33,72.53-126.94,115.75-185.53,44.11-59.79,52.72-112.61,13.25-175.5-14.75-23.51-23.61-46.59-10.12-72.56,14.29-27.52,39.56-32.83,68.54-32.76,194.34,.53,388.68,.28,583.02,.28Zm-681.53,892.15c4.84,.78,8.01,1.74,11.17,1.74,442.67,.1,885.35,.05,1328.02,.5,17.36,.02,23.99-6.12,28.49-22.55,30.6-111.85,24.42-221.59-13.94-330.6-8.52-24.21-20.69-31.96-46.71-31.86-277.48,1.09-554.96,.68-832.44,.68-142.52,0-285.04-.28-427.55,.58-10.7,.06-27.83,5.63-31.04,13.25-50.93,120.67-57.29,243.63-15.98,368.25Zm91.61-505.95h1178.91c-76.24-75.83-110.03-160.3-86.21-263.94H967.95c24.56,104.32-12.12,188.04-85.35,263.94Zm-38.6,631.58c66.9,91.97,145.14,159.11,256.97,161.03,234.17,4.03,468.48-1.03,702.67,2.2,112.27,1.55,196.46-46.24,267.44-126.58,8.82-9.99,15.67-21.71,26.3-36.65H844Z"/></svg>