<?xml version="1.0" encoding="UTF-8"?><svg id="Layer_2" xmlns="http://www.w3.org/2000/svg" width="2727.56" height="2784.94" viewBox="0 0 2727.56 2784.94"><g id="Layer_1-2"><g><path d="M2727.48,828.95c-1.17-42.81-14.35-77.87-37.45-105.84-21.43-25.97-51.42-45.82-88.26-60.09-.66-.27-1.32-.52-1.98-.77,3.05-13.38,5.91-25.94,9.07-39.79,9.34-92.07-33.77-157.19-125.43-196.41,14.26-51.17,10.14-97.38-6.6-135.31-6.37-13.31-13.6-25.41-21.67-36.28-.01-.02-.02-.03-.03-.04-33.96-45.74-82.78-69.65-145.94-70.15-153.36-1.22-306.73,0-460.09-.51-80.01-.27-150.55,47.68-174.61,122.54-11.06,34.41-12.29,74.51-.11,118.23-93.65,40.08-136.62,107.2-124.72,202.48,1.39,11.25,3.56,22.9,6.5,34.94-80.36,31.45-128.95,88.88-127.17,176.15,.95,46.89,16.36,84.99,43.9,114.58,21.08,22.65,49.27,40.33,83.54,53.15-.15,.6-.3,1.2-.44,1.8-11.74,48.1-13.95,95.2,8.55,140.4,12.68,25.46,29.75,45.98,51.05,62.31,16.93,12.99,36.54,23.33,58.73,31.41-.27,1.06-.54,2.12-.79,3.17-13.65,55.55-11.51,107.97,17.28,154.31,6.27,10.1,13.81,19.92,22.73,29.41,49.83,53.01,114.1,60.55,186.74,53.49v40.64c0,358.57-.27,717.13,.15,1075.7,.04,34.43,8.58,65.87,23.35,92.65,39.96,72.52,125.52,110.91,211.29,82.1,73.7-24.76,120.45-91.59,120.48-173.66,.15-357.49,.07-714.98,.07-1072.47v-43.29h3.57c15.92,.01,30.53,.04,45.14-.01,129.24-.4,209.61-102.02,180.09-227.59-.95-4.07-1-8.34-1.43-12.23,.21-.09,.42-.18,.62-.27,2.09-.92,4.15-1.86,6.18-2.81,116.43-54.29,136.02-151.24,109.9-233.92,80.23-31.77,130.23-88.67,127.79-178.02ZM1851.21,303.99c75.46-.3,150.92-.08,226.38-.08s153.08-.28,229.62,.12c23.8,.12,42.76,8.83,54.04,23.27,7.07,9.05,11.12,20.34,11.45,33.18,.88,33.76-26.72,60.35-65.85,60.48-152,.5-304,.47-456,.02-18.09-.05-33.52-5.09-45.02-13.7,0-.01,0-.01,0-.01-14.13-10.59-22.33-26.57-22.27-45.35,.1-34.24,27.07-57.76,67.66-57.93Zm-117.48,235.51c77.72-.32,155.44,1.75,233.16,1.64,151.15-.21,302.3-1.59,453.44-1.73,28.1-.03,48.35,8.71,59.53,24.27,6.69,9.29,10.13,21.02,10.09,34.78-.11,37.45-23.52,56.34-70.32,56.37-113.38,.07-226.75,.02-340.13,0-117.7,0-235.39,.18-353.09-.11-23.88-.06-42.64-10.36-52.64-26.98-4.64-7.72-7.39-16.81-7.88-26.87-1.74-35.78,24.78-61.19,67.84-61.37Zm-184.85,301.9c-4.09-39.13,21.18-64.63,65.79-64.71,155.43-.28,310.85-.11,466.27-.11v.65c98.22,0,196.44,.07,294.66-.03,57.2-.05,114.41-.9,171.6-.39,22.9,.2,40.21,8.44,50.33,22.64,5.99,8.39,9.46,18.87,10.1,31.01,1.79,34.06-19.71,58.37-56.05,62.44-10.67,1.19-21.56,.56-32.35,.55-256.88-.3-513.75-.69-770.63-.92-45.32-.04-90.67,1.44-135.97,.59-20.02-.38-36.17-6.6-47.26-17.13-9.3-8.81-15.03-20.65-16.49-34.59Zm116.99,228.04c.63-34.82,26.09-56.65,68.36-57.6,28.06-.63,56.15-.14,84.22-.14,194.35,0,388.7-.01,583.05,.02,10.79,0,21.68-.57,32.36,.61,18.03,1.99,32.37,8.87,42.04,19.41,.01,0,.01,.01,.02,.02,9.95,10.86,14.94,25.6,13.89,42.88-1.93,31.86-25.25,53.27-61.11,53.42-116.6,.47-233.21,.18-349.82,.23-114.45,0-228.9,.13-343.35-.06-25.63-.05-45.45-8.02-57.28-21.87-8.27-9.67-12.64-22.21-12.38-36.92Zm136.4,279.44c-12.44-11.08-19.44-27.07-18.69-44.41,1.41-32.43,26.32-54.18,63.39-54.3,76.52-.26,153.03-.08,229.55-.04,79.75,0,159.5-.34,239.24,.17,21.16,.14,38.24,9.67,48.03,24.9,4.73,7.34,7.77,16.01,8.76,25.59,2.97,28.8-15.8,55.12-45.42,61.43-12.49,2.66-25.65,3.04-38.5,2.96-102.34-.56-204.69-1.79-307.03-2.15-46.3-.17-92.66,2.84-138.89,1.33-16.27-.53-30.15-6.32-40.37-15.41-.03-.02-.05-.04-.07-.07Zm334.82,1240.43c0,1.96-.02,3.94-.08,5.93-.28,9.91-1.35,20.04-4.53,29.13-9.2,26.28-29.53,40.27-57.01,38.73-16.05-.91-29.29-6.64-38.78-16.76-6.65-7.08-11.45-16.29-14.1-27.51-1.77-7.49-1.91-15.4-1.81-23.32,.05-4.06,.17-8.13,.17-12.14-.07-353.92-.06-707.83-.06-1061.75v-35.11h115.11c.03,.52,.06,1.02,.09,1.52,.28,4.5,.6,8.33,.83,11.88,.18,2.87,.3,5.55,.3,8.23,.05,360.39,.09,720.78-.13,1081.17Z"/><path d="M872.01,1483.55c192.18,0,384.36,.23,576.54-.24,29.47-.07,56.38,2.85,72.73,31.41,15.89,27.75,4.12,50.97-10.78,75.07-37.52,60.73-33.95,115.35,12.15,169.82,100.47,118.7,161.75,253.88,173.29,409.71,14,189.17-69.7,462.98-286.98,568.23-60.79,29.45-123.14,47.97-192.35,47.38-226.71-1.93-453.47-2.32-680.17-.16-149.86,1.42-271.95-59.2-357.89-175.15C28.47,2407.14,2.14,2182.55,101.58,1949.62c28.31-66.33,72.53-126.94,115.75-185.53,44.11-59.79,52.72-112.61,13.25-175.5-14.75-23.51-23.61-46.59-10.12-72.56,14.29-27.52,39.56-32.83,68.54-32.76,194.34,.53,388.68,.28,583.02,.28ZM190.48,2375.7c4.84,.78,8.01,1.74,11.17,1.74,442.67,.1,885.35,.05,1328.02,.5,17.36,.02,23.99-6.12,28.49-22.55,30.6-111.85,24.42-221.59-13.94-330.6-8.52-24.21-20.69-31.96-46.71-31.86-277.48,1.09-554.96,.68-832.44,.68-142.52,0-285.04-.28-427.55,.58-10.7,.06-27.83,5.63-31.04,13.25-50.93,120.67-57.29,243.63-15.98,368.25Zm91.61-505.95H1461c-76.24-75.83-110.03-160.3-86.21-263.94H367.44c24.56,104.32-12.12,188.04-85.35,263.94Zm-38.6,631.58c66.9,91.97,145.14,159.11,256.97,161.03,234.17,4.03,468.48-1.03,702.67,2.2,112.27,1.55,196.46-46.24,267.44-126.58,8.82-9.99,15.67-21.71,26.3-36.65H243.49Z"/><path d="M635.47,1127.49c-41.96,45.04-81.37,87.78-121.26,130.07-54.39,57.67-167.72,79.36-241.57,55.47-78.42-25.36-125.24-81.18-166.72-146.42-32.02-50.35-69.89-97.31-81.22-158.28-22.02-118.54,34.38-227.55,146.68-275.51,50.55-21.59,101.32-42.68,154.29-64.97-40.82-76.52-43.68-155.25-10.87-235.25-42.35-12.98-82.43-25.59-122.73-37.46-16.89-4.97-32.85,1.12-38.09,16.8-4.04,12.08-3.57,30.22,3.13,40.06,6.67,9.79,23.43,13,36.07,18.39,24.11,10.27,30.86,37.12,12.12,53.84-5.45,4.86-15.28,7.43-22.8,6.89-44.73-3.21-76.24-26.85-93.3-67.57-15.46-36.9-4.3-81.05,24.44-108.06,35.2-33.1,75.62-31.78,118.02-17.82,36.95,12.17,73.88,24.43,111.14,35.6,4.1,1.23,11.42-3.28,15.32-7.09,46.59-45.52,99.42-81.37,159.17-107.66,7.93-3.49,14.93-16.83,16.16-26.4,4.91-38.2,8.06-76.68,10.56-115.13,3.69-56.84,46.92-97.84,103.16-96.98,56.32,.87,101.42,53.62,98.23,103.67-.78,12.19-1.69,24.59-4.65,36.36-4.74,18.82-20.79,24.26-36.01,18.79-10.02-3.6-18.79-15.82-23.87-26.25-3.62-7.43-.07-18.3,.09-27.63,.33-19.14-14.52-37.14-32.21-39.22-17.11-2.01-36.44,11.36-38.49,29.61-4.75,42.22-7.84,84.62-11.29,123.43,35.78,8.78,69.1,15.56,101.53,25.29,37.65,11.3,69.63,33.75,94.63,63.33,14.5,17.16,20.78,12.39,33.59-.17,44.33-43.49,86.81-89.68,135.65-127.56,76.85-59.61,189.32-58.39,272.09-7.65,50.69,31.07,80.61,78.67,111.74,125.97,31.12,47.27,64.74,92.42,77.48,150.24,23.67,107.41-39.35,234.15-141.54,276.63-52.4,21.79-104.84,43.5-158.84,65.91,6.69,20.24,13.35,39.34,19.33,58.66,32.57,105.33-11.75,221-97.27,280.56-32.19,22.41-64.77,45.59-100.21,61.75-102.59,46.78-224.21,17.91-297.81-67.15-2.5-2.89-4.83-5.94-13.87-17.1Zm-270.25-406.84c-56.84,24.57-111.26,49.57-166.8,71.78-99,39.58-144.73,164.5-90.72,255.89,25.94,43.89,55.58,85.6,83.85,128.1,58.82,88.41,179.47,114.14,262.59,46.1,50.61-41.43,95.13-90.34,141.47-136.81,3.27-3.28,1.39-15.73-2.2-21.23-42.86-65.6-86.53-130.68-129.94-195.93-32.73-49.2-65.4-98.44-98.24-147.89Zm720.47,35.99c58.46-24.23,116.24-46.8,172.85-71.97,87.92-39.1,133.91-148.54,91.85-235.33-29.54-60.94-66.89-120.32-111.19-171.34-64.18-73.91-175.91-80.1-249.02-16.43-49.32,42.95-90.94,94.74-138.01,144.7,74.7,112.07,153.52,230.34,233.52,350.36Zm-594.78,36.06c30.55,46.35,59.37,90.65,89.28,134.2,2.19,3.19,13.96,3.55,18.53,.74,26.06-16,51.34-33.28,76.79-50.26,95.3-63.56,190.57-127.16,286.65-191.28-32.68-48.54-64.47-95.77-96.47-143.32-126.51,84.36-249.54,166.4-374.79,249.92Zm582.16,67.94c-123.4,82.25-246.41,164.24-371.23,247.44,59.45,52.91,124.58,77.22,198.82,50.23,37.43-13.61,70.75-38.79,105.47-59.5,75.64-45.13,107.14-156.37,66.94-238.17Zm-324.05-490.66c-61.97-54.56-127.96-76.56-202.63-48.91-35.97,13.32-70.53,33.64-101.58,56.43-67.12,49.26-94.61,117.32-81.42,200.18,2.14,13.42,9.06,26.07,14.17,40.16,125.11-83.48,246.59-164.54,371.47-247.87Zm-337.63,303.56c12.98,19.71,23.61,37.61,36.31,53.9,3.13,4.02,15.24,6.26,19.4,3.52,120.87-79.65,241.25-160.03,362.67-240.94-14.54-21.64-28.59-42.55-44.23-65.82-125.11,83.38-248.83,165.83-374.15,249.34Zm585.62,65.83c-126.57,84.42-249.91,166.69-375.2,250.26,15.22,22.5,29.47,43.57,44.55,65.86,126.02-84,249.4-166.25,374.88-249.89-14.45-21.64-28.68-42.95-44.23-66.24Z" stroke="#000" stroke-miterlimit="10" stroke-width="40"/></g></g></svg>