<?xml version="1.0" encoding="UTF-8"?><svg id="Layer_1" xmlns="http://www.w3.org/2000/svg" width="4000" height="4000" viewBox="0 0 4000 4000"><path d="M2618.55,2129.6c21.02,0,39.14,0,57.27,0,96.21,0,192.41-.02,288.62,0,50.47,.01,65.08,14.4,65.11,65.25,.11,234.55,.11,469.11,0,703.66-.03,56.44,1.2,112.97-1.32,169.31-4.63,103.35-91.67,187.64-195.4,191.84-7.94,.32-15.9,.27-23.85,.27-588.37,.01-1176.75,.01-1765.12-.02-8.74,0-17.62,.49-26.18-.86-24.69-3.87-39.24-19.74-41.6-44.89-.89-9.47-.83-19.05-.83-28.59-.04-464.34,.12-928.67-.4-1393.01-.03-27.7,7.36-50.31,24.18-72.37,90.53-118.82,180.32-238.21,269.4-358.13,8.19-11.02,13.11-26.99,13.5-40.83,1.53-54.02,.33-108.12,.7-162.18,.65-95.16,65.47-159.8,160.95-159.9,235.35-.24,470.7-.22,706.05,0,96.9,.09,161.05,64.28,161.83,161.55,.43,54.06-.75,108.15,.68,162.18,.35,13.11,5.21,28.21,12.99,38.68,90.59,121.78,182.71,242.43,272.73,364.62,11.76,15.96,19.42,38.81,19.78,58.64,1.92,104.92,.9,209.89,.9,314.84,0,8.67,0,17.35,0,29.94Zm-721.89,1024.85V1822.07c-10.7,0-19.4,0-28.09,0-253.56,0-507.11,.34-760.67-.55-24.02-.08-30.38,5.83-30.33,30.22,.8,425.24,.58,850.49,.58,1275.73,0,8.54,0,17.09,0,26.99h818.52Zm107.2-1331.44v1331.73h225.78c-7.35-31.53-20.75-62.67-20.93-93.88-1.63-292.49-1.07-585-.91-877.5,.02-35.82,18.51-53.57,54.99-53.68,74.71-.23,149.43-.07,224.14-.08,8.55,0,17.1,0,26.27,0v-306.59h-509.35Zm307.68,903.63c0,108.49-.14,213.34,.05,318.19,.13,70.16,40.9,110.9,110.83,110.96,129.56,.11,259.13,.07,388.69,.02,74.48-.03,115.3-40.19,115.49-114.41,.28-115.25-.34-230.51,.52-345.76,.13-17.22-5.53-26.09-21.05-31.69-90.2-32.52-177.45-30.9-259.69,22.96-43.26,28.33-90.09,45.89-141.06,53.69-64.6,9.89-128.11,5-193.77-13.96Zm-1179.06-1009.09c7.34,.59,10.45,1.05,13.55,1.05,254.26,.04,508.51,.19,762.77-.56,8.99-.03,20.84-6.89,26.48-14.29,70.31-92.17,139.74-185.02,209.3-277.76,2.61-3.48,4.25-7.69,7.49-13.69-7.02-.55-11.57-1.21-16.12-1.21-252.67-.05-505.33-.22-758,.62-9.76,.03-22.64,7.36-28.73,15.35-68.87,90.28-136.72,181.35-204.77,272.26-3.64,4.86-6.69,10.16-11.96,18.23Zm1792.55,841.85v-324.79h-611.74c-.67,4.14-1.57,7.13-1.58,10.12-.11,117.61-.49,235.22,.61,352.82,.07,7.93,9.69,19.82,17.64,23.02,91.47,36.88,179.04,29.06,264.01-22.28,30.15-18.22,63.32-33.21,97-43.49,77.08-23.52,154.97-18.54,234.06,4.6Zm-717.5-1252.66c0-53.65,.9-104.48-.34-155.26-.74-30.28-20.18-47.69-50.93-48.1-41.31-.56-82.63-.19-123.95-.19-196.26,0-392.51-.07-588.77,.07-39.27,.03-56.57,17.5-56.89,56.6-.2,23.84-.04,47.67-.04,71.51,0,25.02,0,50.05,0,75.37h820.92Zm255.42,410.52c-68.94-91.37-135.48-179.56-203.76-270.06-68.49,90.8-135.02,179.02-203.69,270.06h407.45Z"/><path d="M1487.31,2334.8c-84.15,0-168.3,.29-252.44-.13-38.68-.19-60.73-24.28-51.95-61.29,3.42-14.39,18.41-27.56,31.04-37.63,6.84-5.45,19.81-4.29,30.01-4.3,163.53-.22,327.07-.42,490.6,.3,14.41,.06,30.82,3.3,42.74,10.75,20.5,12.82,23.81,35.12,17.56,57.23-6.57,23.26-23.58,34.94-47.98,34.95-86.53,.05-173.06,.02-259.59,.02v.1Z"/><path d="M1488.04,2540.31c-49.28,.02-98.57,.34-147.85-.09-35.88-.31-56.39-18.51-57.44-49.6-1.08-32.05,19.79-53.1,56.48-53.35,100.15-.68,200.31-.73,300.46,.06,35.4,.28,55.26,20.8,54.84,52.38-.41,31.48-20.6,50.13-56.27,50.47-50.07,.47-100.15,.12-150.23,.14Z"/></svg>