<?xml version="1.0" encoding="UTF-8"?><svg id="Layer_1" xmlns="http://www.w3.org/2000/svg" width="4000" height="4000" viewBox="0 0 4000 4000"><path d="M3348.91,1727.6c-15.53-47.43-37.99-92.51-66.76-133.99-28.79-41.51-63.17-78.34-102.16-109.47-40.05-31.97-84.1-57.2-130.93-74.99-95.02-36.1-192.01-43.28-288.27-21.34-64.46,14.69-123.58,40.03-175.71,75.32-47.34,32.05-89.12,72.41-124.34,120.1-17.93-7.42-35.75-14.76-53.46-22.06-74.19-30.58-144.28-59.46-214.79-90.37-3.3-2.22-9.21-14.49-9.33-22.94-1.11-78.83-1.01-159.06-.9-236.65,.03-23.98,.06-47.96,.06-71.94v-61.49c.89-.19,1.76-.38,2.61-.56,8.43-1.81,15.1-3.23,21.91-4.82,35.19-8.17,66.03-27.9,86.84-55.54,21.01-27.9,30.49-62.05,26.7-96.17-7.94-71.46-66.31-122.75-141.93-124.73-11.35-.3-22.68-.22-34.68-.15-.98,0-1.96,.01-2.96,.02,0-19.22,.02-38.08,.03-56.67,.04-53.92,.07-104.85-.09-156.18-.09-27.5-2.65-47.13-15.16-60-12.71-13.08-32.04-15.74-59.13-15.79-145.99-.27-295.19-.27-443.48,0-27.27,.05-46.78,2.68-59.76,15.64-12.92,12.91-15.56,32.28-15.62,59.37-.12,52.26-.09,103.71-.07,158.17,0,18.31,.02,36.78,.02,55.47-11.53-.02-22.89-.05-33.98-.08-36.22-.1-70.43-.2-104.98,.24-24.99,.33-46.81,6.45-64.84,18.19-18.01,11.73-31.48,28.97-38.97,49.84-7.87,21.95-8.35,44.65-1.39,65.64,6.94,20.93,20.7,39.58,40.91,55.42,32.73,25.67,68.49,53.48,112.54,87.52,32.6,25.2,49.42,56.5,49.99,93.04,1.18,75.91,.96,150.2,.73,228.86-.08,27.42-.16,55.67-.18,83.86-.47,.19-.94,.38-1.4,.57-6.32,2.56-11.78,4.76-17.16,6.62-112.96,38.98-218.84,94.85-314.7,166.07-93.98,69.83-176.54,153.03-245.38,247.3-69.09,94.62-122.86,198.33-159.81,308.26-37.94,112.86-57.42,230.25-57.92,348.91-1.68,400.2,164.52,723.4,493.99,960.63,19.39,13.96,46.41,22.68,70.5,22.75,190.96,.57,391.31,.85,604.67,.85,179.24,0,367.69-.2,567.31-.6,23.02-.05,45.66-6.38,60.56-16.93,77.26-54.72,146.58-115.24,206.05-179.89,59.67-64.87,111.04-135.65,152.67-210.37,41.74-74.91,74.82-155.81,98.32-240.44,23.54-84.77,38.11-175.58,43.3-269.91,3.34-60.67-1.18-122.49-5.55-182.27-1.75-23.99-3.56-48.69-4.85-73.17,60.93-25.58,114.77-54.37,160.15-85.65,48.44-33.38,89.12-70.88,120.9-111.44,31.97-40.81,56.09-86.2,71.7-134.9,15.49-48.35,23.14-101.68,22.73-158.53-.36-50.02-8.62-100.04-24.55-148.69ZM1657.98,616.37h375.07v176.68h-375.07v-176.68Zm1164.94,2363.92c-34.93,84.02-81.53,161.48-138.52,230.24-48.19,58.14-106.29,110.43-162.49,161-17.73,15.96-36.07,32.46-53.86,48.93-7.69,7.12-24.49,12.32-39.95,12.36-379.97,.9-762.24,.89-1136.17-.02-13.72-.03-30.31-5.54-41.29-13.71-62.42-46.41-118.87-97.23-167.78-151.06-49.03-53.95-91.88-112.46-127.37-173.9-35.61-61.66-64.83-128.04-86.85-197.3-22.12-69.59-37.6-144.07-46.01-221.39-9.65-88.71-6.86-175.81,8.56-265.84,299.89,.36,564.9,32.82,809.66,99.15,65.97,17.88,132.87,36.96,197.57,55.41,117.05,33.38,238.09,67.9,358.54,96.72,182.53,43.67,385.56,65.54,638.95,68.82,15.4,.2,30.91,1.04,47.34,1.93,2.68,.15,5.38,.29,8.12,.44-14.02,89.16-37.02,172.59-68.46,248.23Zm442.55-1067.5c-13.4,175.18-149.79,325.4-324.29,357.17-26.39,4.8-46.17,11.32-56.92,27.51-10.82,16.31-9.12,37.25-3.24,63.69,18.94,85.12,25.51,172.06,20.02,265.31-25.11-1.06-50.25-2.1-74.69-3.1-62.98-2.59-128.1-5.27-191.78-8.44-139.28-6.92-287.18-28.74-452.16-66.7-151.37-34.83-301.43-79.45-442.16-122.16-131.58-39.94-267.4-69.38-415.21-89.99-132.04-18.41-270.39-29.27-422.97-33.2-7.82-.2-15.65-.26-23.63-.26-6.64,0-13.39,.04-20.31,.09-1.36,0-2.73,.02-4.1,.03,28-108.62,72.76-207.95,136.53-303.1,69.56-103.8,152.1-191.97,245.32-262.05,94.28-70.88,202.09-125.22,320.43-161.51,41.02-12.58,59.08-37.42,58.56-80.54-.75-61.93-.64-124.97-.53-185.92,.07-41.54,.15-84.49-.05-126.75-.39-84.07-33.61-151.14-98.72-199.33-27.43-20.31-54.74-41.96-81.14-62.9-7.18-5.69-14.5-11.5-21.85-17.3,6.8-1.02,13.31-1.84,19.61-1.85,209.74-.25,439.97-.28,724.54-.08h.09c2.69,0,5.43-.1,8.08-.19,6.19-.21,15.54-.54,18.35,1.33,25.8,17.18,27.28,25.29,27.37,26.16,1.03,10.66-12.26,29.15-19.06,38.48-3.34,2.04-14.65,3.16-18.98,3.59l-.6,.06c-44.68,4.45-67.1,6.68-81.21,22.65-13.98,15.82-13.98,38.84-13.98,84.72,0,37.39,.09,75.39,.18,112.15,.23,96.86,.46,197.03-.92,295.45-.33,23.27,3.87,40.24,13.22,53.41,9.79,13.81,25.36,23.22,47.58,28.78,97.28,24.33,192.14,66.67,290.02,129.46,22.44,14.39,39.92,22.51,57.73,18.51,17.97-4.04,30.66-19.38,45.31-42.84,24.3-38.89,54.32-73.06,89.25-101.56,34.06-27.8,72.05-49.63,112.91-64.9,40.84-15.26,83.54-23.58,126.9-24.73,44.43-1.18,88.61,5.23,131.31,19.02,42.71,13.8,82.54,34.75,118.38,62.27,34.91,26.8,65.11,59.1,89.76,95.99,24.66,36.89,42.99,77.21,54.47,119.84,11.8,43.77,16.03,88.77,12.59,133.75Z"/><path d="M3066.32,1690.4c-26.42-26.67-57.19-47.66-91.45-62.38-35.55-15.28-73.21-23.05-111.92-23.1h-.41c-38.08,0-75.15,7.48-110.19,22.23-33.92,14.28-64.46,34.71-90.78,60.73-26.33,26.03-47.06,56.3-61.63,89.97-15.11,34.92-22.87,71.93-23.06,109.99-.39,76.97,28.7,149.41,81.91,203.97,53.23,54.58,124.74,85.25,201.35,86.38,1.37,.02,2.73,.03,4.1,.03,36.39,0,72.04-7.15,106.02-21.28,33.91-14.1,64.62-34.46,91.29-60.53,27.06-26.45,48.45-57.29,63.58-91.66,15.71-35.71,23.84-73.47,24.15-112.22,.31-38.27-7.05-75.58-21.88-110.91-14.29-34.04-34.83-64.72-61.07-91.21Zm-76.06,326.96c-34.31,34.6-80.77,54.42-127.52,54.42-.13,0-.26,0-.38,0-47.54-.11-92.21-18.84-125.78-52.74-34.3-34.63-52.98-80.85-52.62-130.14,.36-48.21,18.92-92.86,52.25-125.73,33.28-32.81,78.24-50.87,126.62-50.87h.33c47.75,.08,92.76,18.58,126.75,52.09,33.97,33.49,52.96,78.04,53.46,125.47,.49,46.51-18.87,92.98-53.11,127.5Z"/></svg>